<?xml version="1.0" encoding="UTF-8"?>
<svg width="22px" height="21px" viewBox="0 0 22 21" version="1.1" xmlns="http://www.w3.org/2000/svg" xmlns:xlink="http://www.w3.org/1999/xlink">
    <!-- Generator: Sketch 44.1 (41455) - http://www.bohemiancoding.com/sketch -->
    <title>icon-tea</title>
    <desc>Created with Sketch.</desc>
    <defs></defs>
    <g id="Page-1" stroke="none" stroke-width="1" fill="none" fill-rule="evenodd">
        <g id="icon-tea" fill-rule="nonzero" fill="#4C4C4C">
            <path d="M6.04446043,0.112374101 C6.24968825,0.0997122302 6.43935252,-0.00685851319 6.64748201,0.00580335731 C6.81920863,-0.00685851319 6.98803357,0.0559232614 7.12810552,0.151942446 C7.32726619,0.298345324 7.4776259,0.501990408 7.58630695,0.721990408 C7.87647482,1.30206235 7.96642686,1.95309353 8.06059952,2.58697842 C8.10465228,2.84839329 8.087506,3.11402878 8.08882494,3.37781775 C8.09093525,3.46592326 8.07616307,3.55270983 8.06165468,3.63896882 C8.56127098,3.60388489 9.05745803,3.53239808 9.55733813,3.50074341 C9.76414868,3.47199041 9.97386091,3.49625899 10.1809353,3.467506 C10.7435971,3.4482494 11.3041487,3.39100719 11.8654916,3.34880096 C12.0140048,3.32453237 12.1654197,3.33429257 12.3134053,3.30422062 C12.4954197,2.82465228 12.6571223,2.33664269 12.7971942,1.84309353 C12.883717,1.52390887 12.9644365,1.20103118 12.9947722,0.871031175 C12.9984652,0.827242206 13.0090168,0.781079137 13.0451559,0.75206235 C13.3303118,0.466906475 13.734964,0.297817746 14.1398801,0.317074341 C14.4292566,0.339760192 14.7146763,0.439736211 14.9447002,0.618848921 C15.2747002,0.860215827 15.4799281,1.25616307 15.5010312,1.66318945 C15.515012,2.04119904 15.3804796,2.41155875 15.1765707,2.72573141 C15.0597122,2.91618705 14.9067146,3.08 14.763741,3.25014388 C14.9423261,3.24565947 15.1182734,3.2736211 15.2960671,3.28258993 C15.4928537,3.31028777 15.7001918,3.30817746 15.8816787,3.40129496 C16.2567866,3.58568345 16.548801,3.89985612 16.7941247,4.23170264 C17.0220384,4.54033573 17.2164508,4.87693046 17.3433333,5.24016787 C17.3831655,5.37074341 17.4311751,5.52453237 17.3554676,5.65141487 C17.2995444,5.65088729 17.2407194,5.65616307 17.1908633,5.62714628 C16.4364269,5.23172662 15.5930935,5.02095923 14.7465947,4.95395683 C14.5490168,4.95263789 14.3506475,4.94498801 14.1543885,4.97242206 C13.7877218,4.98191847 13.4242206,5.03045564 13.0586091,5.05788969 C12.8868825,5.24069544 12.71753,5.42561151 12.5489688,5.61158273 C12.4927818,5.67964029 12.4373861,5.74901679 12.3695923,5.80652278 C12.3959712,5.71129496 12.4505755,5.61791367 12.4310552,5.51635492 C12.3959712,5.5240048 12.3590408,5.528753 12.3294964,5.55064748 C12.1968106,5.64402878 12.0833813,5.76167866 11.9791847,5.88513189 C11.6114628,6.29453237 11.3041487,6.75616307 11.052494,7.24470024 C11.0335012,7.04791367 11.0738609,6.85323741 11.1194964,6.66278177 C11.2363549,6.17741007 11.4225899,5.7128777 11.5755875,5.23858513 C11.2949161,5.227506 11.0189928,5.29741007 10.7380576,5.29345324 C10.5729257,5.34357314 10.3985612,5.29160671 10.2329017,5.33618705 C10.0493046,5.35016787 9.86254197,5.32220624 9.68052758,5.36071942 C9.41673861,5.37417266 9.15110312,5.35254197 8.88863309,5.38841727 C8.53515588,5.39131894 8.18141487,5.38841727 7.82899281,5.41769784 C7.80155875,5.667506 7.79681055,5.91968825 7.82371703,6.16976019 C7.83901679,6.51189448 7.89441247,6.85191847 7.98119904,7.18297362 C7.98621103,7.21673861 7.98647482,7.25076739 7.98199041,7.28532374 C7.78177458,7.15184652 7.64935252,6.94556355 7.52510791,6.74482014 C7.27529976,6.32697842 7.068753,5.88539568 6.86880096,5.44196643 C6.60633094,5.44486811 6.34280576,5.43194245 6.08191847,5.46544365 C5.55882494,5.46808153 5.03177458,5.51793765 4.52688249,5.66223022 C4.40105516,5.69573141 4.27311751,5.73239808 4.14148681,5.72633094 C3.71019185,5.71261391 3.31345324,5.50844125 2.96868106,5.26285372 C2.71834532,5.08611511 2.48304556,4.88853717 2.26199041,4.67671463 C2.06678657,4.46568345 1.86446043,4.25043165 1.74628297,3.98453237 C1.69141487,3.86134293 1.66239808,3.69330935 1.76738609,3.58832134 C1.86973621,3.50496403 2.00611511,3.4770024 2.13563549,3.48386091 C2.38676259,3.47278177 2.63472422,3.5247482 2.87767386,3.58251799 C3.39443645,3.71045564 3.92465228,3.80251799 4.45829736,3.79434053 C4.69623501,3.81465228 4.93417266,3.7853717 5.1723741,3.79223022 C5.49393285,3.75846523 5.81865707,3.75872902 6.1383693,3.70940048 C6.0117506,3.39918465 5.89515588,3.08527578 5.77275779,2.77347722 C5.63083933,2.38860911 5.42323741,2.01956835 5.11961631,1.73889688 C4.93997602,1.54527578 4.71232614,1.40757794 4.51184652,1.23822542 C4.41609113,1.15724221 4.32007194,1.0401199 4.35911271,0.90558753 C4.43772182,0.673189448 4.63767386,0.515179856 4.80254197,0.344244604 C4.89381295,0.248752998 5.00856115,0.168561151 5.14309353,0.153788969 C5.44143885,0.10736211 5.74664269,0.166714628 6.04446043,0.112374101 L6.04446043,0.112374101 Z" id="Shape"></path>
            <path d="M8.96407674,6.59314149 C8.94956835,6.43486811 9.05719424,6.26736211 9.20834532,6.21829736 C9.51935252,6.1623741 9.82930456,6.27131894 10.1081295,6.40031175 C10.4238849,6.55805755 10.7230216,6.77383693 10.9174341,7.0735012 C11.0469544,7.27160671 11.1158034,7.52220624 11.0511751,7.75539568 C11.0039568,7.98673861 10.8543885,8.17376499 10.7296163,8.3671223 C11.1754197,8.441247 11.6138369,8.57947242 12.0055635,8.80791367 C12.4666667,9.07486811 12.8713189,9.42570743 13.3213429,9.70954436 C13.836259,10.0382254 14.396283,10.2954197 14.9811031,10.4721583 C16.178705,10.8346043 17.4322302,10.9559472 18.67494,11.0329736 C18.9039089,11.0319185 19.1326139,11.0506475 19.3615827,11.037458 C19.8015827,11.0356115 20.2397362,10.9767866 20.6715588,10.8923741 C21.0018225,10.8298561 21.3244365,10.7317266 21.6557554,10.673693 C21.7536211,10.6678897 21.8725899,10.6554916 21.9453957,10.736211 C22.0105516,10.8372422 21.9617506,10.9654436 21.8984412,11.0548681 C21.7617986,11.2440048 21.5755635,11.3909353 21.3822062,11.5186091 C21.0105276,11.7581295 20.603765,11.9364508 20.1935731,12.0986811 C19.7279856,12.2772662 19.2571223,12.4439808 18.7757074,12.5750839 C18.1850839,12.73494 17.5759952,12.8557554 16.9616307,12.8343885 C16.7097122,12.812494 16.452518,12.7752998 16.2246043,12.6592326 C15.6885851,12.3735492 15.1114149,12.1786091 14.5577218,11.9317026 C13.6616307,11.5436691 12.8428297,10.9994724 12.0759952,10.3993525 C11.7668345,10.1371463 11.4429017,9.89155875 11.1564269,9.60376499 C10.8517506,9.34604317 10.5840048,9.048753 10.2877698,8.78206235 C9.91952038,9.08515588 9.50009592,9.31491607 9.11021583,9.58741007 C8.99968825,9.65757794 8.89707434,9.73908873 8.78681055,9.80925659 C8.53673861,9.9622542 8.30196643,10.1382014 8.05664269,10.2983213 C7.16609113,10.8770743 6.25786571,11.4320863 5.30532374,11.903741 C4.3211271,12.3833094 3.29419664,12.8090647 2.20606715,12.9781535 C1.4801199,13.0886811 0.709328537,13.0841966 0.0221582734,12.7956115 C0.436306954,12.4566427 0.948585132,12.2835971 1.42577938,12.0570024 C2.58091127,11.5370743 3.68328537,10.9058273 4.85398082,10.4196643 C5.31640288,10.233693 5.72553957,9.94378897 6.14153477,9.67393285 C6.40004796,9.50484412 6.65856115,9.33153477 6.94318945,9.20834532 C7.12256595,9.12551559 7.28505995,9.01129496 7.44570743,8.89733813 C7.75460432,8.67311751 8.05215827,8.43306954 8.33335731,8.17508393 C8.51985612,7.98199041 8.74170264,7.80868106 8.8501199,7.55544365 C8.98755396,7.25366906 8.96592326,6.91601918 8.96407674,6.59314149 L8.96407674,6.59314149 Z" id="Shape"></path>
            <path d="M9.21652278,10.1411031 C9.31676259,10.1202638 9.42438849,10.0959952 9.5246283,10.1294964 C9.69899281,10.2017746 9.88047962,10.2679856 10.028729,10.3885372 C10.2999041,10.5684412 10.5309832,10.800048 10.7530935,11.0361391 C10.8063789,11.0997122 10.8754916,11.1593285 10.8873621,11.2463789 C10.9638609,11.6460192 10.9116307,12.0554197 10.8496403,12.4532134 C11.6882254,12.3540288 12.5099281,12.1379856 13.3070983,11.8628537 C13.452446,11.8322542 13.606235,11.8567866 13.7333813,11.9340767 C14.0681295,12.1234772 14.3195204,12.4284173 14.5321343,12.7431175 C14.7257554,13.0441007 14.8879856,13.3796403 14.9127818,13.7418225 C14.8958993,13.8684412 14.8666187,14.0217026 14.7431655,14.0879137 C14.5880576,14.1567626 14.4110552,14.1665228 14.247506,14.1248441 C14.088705,14.103741 13.9655156,13.9913669 13.8167386,13.9428297 C13.5052038,13.8330935 13.1725659,13.8156835 12.8467866,13.788777 C12.4777458,13.79247 12.1076499,13.7729496 11.7401918,13.8117266 C11.5447242,13.8046043 11.3526859,13.8439089 11.1577458,13.8428537 C11.003693,13.873717 10.8448921,13.854988 10.6921583,13.8942926 C10.6924221,14.1865707 10.6845084,14.4793765 10.6971703,14.7713909 C10.7317266,14.9552518 10.7093046,15.1433333 10.7377938,15.3282494 C10.7354197,15.4422062 10.7844844,15.5490408 10.7731415,15.6635252 C10.8815588,16.6355875 11.0981295,17.5931415 11.1777938,18.5683693 C11.1938849,19.0057314 11.2284412,19.4568106 11.0978657,19.8815108 C11.0342926,20.0867386 10.8955396,20.3019904 10.6721103,20.3494724 C10.5745084,20.3645084 10.4742686,20.3576499 10.3766667,20.3486811 C10.0801679,20.2568825 9.82007194,20.0777698 9.58107914,19.8838849 C9.37057554,19.7089928 9.16851319,19.5232854 8.98597122,19.3188489 C8.62458034,18.9345084 8.29853717,18.5156115 8.01997602,18.0671703 C7.91340528,17.8841007 7.79443645,17.7010312 7.74721823,17.4921103 C8.08565947,17.6770264 8.43729017,17.9028297 8.83798561,17.8893765 C9.10573141,17.8951799 9.37558753,17.6976019 9.42544365,17.4298561 C9.4623741,16.9402638 9.39721823,16.4530456 9.33944844,15.9684652 C9.30647482,15.7600719 9.29882494,15.547458 9.24870504,15.3419664 C9.23498801,15.0924221 9.18908873,14.8452518 9.16376499,14.5959712 C9.1347482,14.4208153 9.12736211,14.2430216 9.09386091,14.0689209 C8.81477218,14.0760432 8.53964029,14.1322302 8.26107914,14.152542 C7.84798561,14.2045084 7.43330935,14.2430216 7.0183693,14.2783693 C6.81577938,14.2736211 6.61239808,14.3123981 6.41059952,14.2786331 C6.08534772,14.2253477 5.79359712,14.0520384 5.54088729,13.8470743 C5.25071942,13.596211 4.99484412,13.2796643 4.90726619,12.8984892 C4.87323741,12.7257074 4.87930456,12.5104556 5.03810552,12.3991367 C5.25916067,12.2442926 5.54669065,12.2838609 5.80019185,12.3002158 C6.48261391,12.4102158 7.17083933,12.4743165 7.85959233,12.5257554 C8.04529976,12.5207434 8.22889688,12.5597842 8.41486811,12.5521343 C8.59820144,12.5463309 8.78100719,12.5626859 8.96407674,12.56506 C8.967506,12.3505995 8.93215827,12.1377218 8.93901679,11.9232614 C8.93136691,11.4489688 8.96038369,10.9746763 9.02633094,10.5051319 C9.05165468,10.3695444 9.07302158,10.2023022 9.21652278,10.1411031 L9.21652278,10.1411031 Z" id="Shape"></path>
            <path d="M7.31645084,14.5972902 C7.5135012,14.5440048 7.70764988,14.638705 7.87884892,14.7273381 C8.12153477,14.8568585 8.39033573,14.9858513 8.52829736,15.2377698 C8.67338129,15.4820384 8.64621103,15.7848681 8.55071942,16.0420624 C8.40721823,16.4184892 8.16242206,16.7492806 7.87805755,17.0315348 C7.56968825,17.3541487 7.21330935,17.6311271 6.82263789,17.8471703 C6.60395683,17.9611271 6.37129496,18.0703357 6.12043165,18.0777218 C5.94580336,18.0756115 5.76880096,18.0793046 5.59892086,18.1244125 C5.29292566,18.198801 5.02122302,18.3726379 4.71285372,18.4401679 C4.39340528,18.5071703 4.07211031,18.5696882 3.74764988,18.6052998 C3.60678657,18.605036 3.46724221,18.651199 3.32664269,18.6227098 C3.21136691,18.6047722 3.07604317,18.5992326 2.99664269,18.500048 C2.95100719,18.356283 3.06390887,18.2336211 3.15333333,18.136283 C3.47172662,17.811295 3.85738609,17.5628058 4.24119904,17.322494 C4.6318705,17.0908873 5.00434053,16.8289448 5.3517506,16.5361391 C5.66381295,16.2694484 5.97270983,15.9958993 6.23913669,15.6822542 C6.50081535,15.4160911 6.73426859,15.1235492 7.00280576,14.863717 C7.10199041,14.7695444 7.19009592,14.6566427 7.31645084,14.5972902 L7.31645084,14.5972902 Z" id="Shape"></path>
            <path d="M11.458729,14.6516307 C11.5671463,14.6273621 11.6771463,14.6569065 11.7842446,14.6761631 C12.1754436,14.7708633 12.5347242,14.9586811 12.8990168,15.1243405 C13.0984412,15.2317026 13.3073621,15.3198082 13.5017746,15.4366667 C13.8357314,15.599952 14.1625659,15.7941007 14.5271223,15.8803597 C14.7582014,15.9022542 14.9206954,16.0829496 15.0868825,16.2251319 C15.3461871,16.4870743 15.5899281,16.767482 15.7890887,17.078753 C15.8695444,17.2080096 15.9465707,17.3420144 15.9882494,17.4894724 C16.0053957,17.5395923 15.9995923,17.5947242 15.9816547,17.6440528 C15.8906475,17.9215588 15.8661151,18.2141007 15.8323501,18.5024221 C15.8009592,18.6994724 15.7806475,18.9168345 15.6442686,19.0740528 C15.5247722,19.2006715 15.3306235,19.1919664 15.1768345,19.145012 C15.0098561,19.0843405 14.8291607,19.1568825 14.6935731,19.2568585 C14.5653717,19.3452278 14.4595923,19.4810791 14.2970983,19.5058753 C14.1905276,19.4839808 14.1150839,19.4003597 14.0507194,19.3191127 C13.8043405,18.9764508 13.5513669,18.6382734 13.3123741,18.2903357 C13.1176978,18.0123022 12.9578417,17.7094724 12.846259,17.388705 C12.778729,17.2048441 12.7246523,17.0167626 12.6602878,16.8321103 C12.4859233,16.371271 12.1416787,16.0040767 11.7855635,15.6756595 C11.6631655,15.5785851 11.5602878,15.4598801 11.4365707,15.3646523 C11.3123261,15.241199 11.1622302,15.1132614 11.1361151,14.9299281 C11.1514149,14.7703357 11.3181295,14.6827578 11.458729,14.6516307 L11.458729,14.6516307 Z" id="Shape"></path>
        </g>
    </g>
</svg>