<?xml version="1.0" encoding="UTF-8"?>
<svg width="24px" height="24px" viewBox="0 0 24 24" version="1.1" xmlns="http://www.w3.org/2000/svg" xmlns:xlink="http://www.w3.org/1999/xlink">
    <!-- Generator: Sketch 44.1 (41455) - http://www.bohemiancoding.com/sketch -->
    <title>Shape</title>
    <desc>Created with Sketch.</desc>
    <defs></defs>
    <g id="Page-1" stroke="none" stroke-width="1" fill="none" fill-rule="evenodd">
        <g id="icon-email" transform="translate(-1.000000, -1.000000)" fill-rule="nonzero" fill="#4C4C4C">
            <path d="M13.1875,1 C5.824219,0.890625 -0.085937,7.484375 1.15625,15.03125 C2,20.152344 6.203125,24.179688 11.34375,24.875 C14.808594,25.34375 18.046875,24.34375 20.5,22.375 L19.25,20.8125 C17.203125,22.453125 14.511719,23.300781 11.59375,22.90625 C7.339844,22.332031 3.851563,18.953125 3.15625,14.71875 C2.109375,8.347656 6.992188,2.910156 13.15625,3 C18.410156,3.078125 22.839844,7.433594 23,12.6875 C23.003906,12.800781 23,12.910156 23,13.03125 C22.992188,15.234375 21.207031,17 19,17 C17.882813,17 17,16.117188 17,15 L17,7 L15,7 L15,7.78125 C14.28125,7.292969 13.425781,7 12.5,7 C10.027344,7 8,9.027344 8,11.5 L8,14.5 C8,16.972656 10.027344,19 12.5,19 C13.847656,19 15.046875,18.386719 15.875,17.4375 C16.609375,18.371094 17.730469,19 19,19 C22.285156,19 24.988281,16.320313 25,13.03125 C25,12.898438 25.003906,12.769531 25,12.625 C24.808594,6.289063 19.523438,1.09375 13.1875,1 Z M12.5,9 C13.890625,9 15,10.109375 15,11.5 L15,14.5 C15,15.890625 13.890625,17 12.5,17 C11.109375,17 10,15.890625 10,14.5 L10,11.5 C10,10.109375 11.109375,9 12.5,9 Z" id="Shape"></path>
        </g>
    </g>
</svg>