<?xml version="1.0" encoding="UTF-8"?>
<svg width="99px" height="15px" viewBox="0 0 99 15" version="1.1" xmlns="http://www.w3.org/2000/svg" xmlns:xlink="http://www.w3.org/1999/xlink">
    <!-- Generator: Sketch 44.1 (41455) - http://www.bohemiancoding.com/sketch -->
    <title>icon-soundcloud</title>
    <desc>Created with Sketch.</desc>
    <defs></defs>
    <g id="Page-1" stroke="none" stroke-width="1" fill="none" fill-rule="evenodd">
        <g id="icon-soundcloud" fill="#000000">
            <g id="Shape" fill-rule="nonzero">
                <path d="M18,0 C15.8390628,0 13.8,1.0734378 12.6,2.8125 L12.6,4.9125 L12.7875,5.04375 L13.0125,4.44375 C13.8515628,2.4632814 15.84375,1.2 17.94375,1.2 C20.94375,1.2 23.34375,3.6 23.34375,6.6 L23.34375,7.8 L24.24375,7.44375 C24.6632814,7.2632814 25.0804686,7.2 25.5,7.2 C27.3,7.2 28.8,8.7 28.8,10.5 C28.8,12.3 27.3,13.8 25.5,13.8 L12.6,13.8 L12.6,15 L25.5,15 C27.9609378,15 30,12.9609378 30,10.5 C30,8.0390628 27.9609378,6 25.5,6 C25.2,6 24.9,6.0515628 24.6,6.1125 C24.3,2.6929686 21.4804686,0 18,0 Z M10.2,3 C9.7804686,3 9.3609378,3.0515628 9,3.1125 L9,15 L10.2,15 L10.2,3 Z M10.8,3 L10.8,15 L12,15 L12,3.3 C11.6390628,3.1804686 11.2195314,3.0609378 10.8,3 Z M8.4,3.3 C7.9804686,3.4804686 7.5609378,3.6609378 7.2,3.9 L7.2,15 L8.4,15 L8.4,3.3 Z M6.6,4.3875 C6.1195314,4.8070314 5.7,5.34375 5.4,5.94375 L5.4,15 L6.6,15 L6.6,4.3875 Z M3.9,6.6 C3.7945314,6.6070314 3.6890628,6.6257814 3.6,6.65625 L3.6,14.94375 C3.7804686,15.0046878 4.0195314,15 4.2,15 L4.8,15 L4.8,6.65625 C4.6195314,6.5953128 4.3804686,6.6 4.2,6.6 C4.1109378,6.6 4.0054686,6.5929686 3.9,6.6 Z M3,6.7875 C2.5804686,6.9070314 2.1609378,7.0875 1.8,7.3875 L1.8,14.2125 C2.1609378,14.4515628 2.5804686,14.6929686 3,14.8125 L3,6.7875 Z M1.2,7.85625 C0.4804686,8.6367186 0,9.6609378 0,10.8 C0,11.9390628 0.4804686,12.9632814 1.2,13.74375 L1.2,7.85625 Z"></path>
            </g>
            <text id="SOUNDCLOUD" font-family="PTSans-Regular, PT Sans" font-size="10" font-weight="normal" letter-spacing="0.300000012">
                <tspan x="35" y="11">SOUNDCLOU</tspan>
                <tspan x="93.2200001" y="11">D</tspan>
            </text>
        </g>
    </g>
</svg>