<?xml version="1.0" encoding="UTF-8"?>
<svg width="18px" height="26px" viewBox="0 0 18 26" version="1.1" xmlns="http://www.w3.org/2000/svg" xmlns:xlink="http://www.w3.org/1999/xlink">
    <!-- Generator: Sketch 44.1 (41455) - http://www.bohemiancoding.com/sketch -->
    <title>icon-meditation</title>
    <desc>Created with Sketch.</desc>
    <defs></defs>
    <g id="Page-1" stroke="none" stroke-width="1" fill="none" fill-rule="evenodd">
        <g id="icon-meditation" fill-rule="nonzero" fill="#4C4C4C">
            <path d="M9,0 C7.25252771,0 5.82352941,1.58777588 5.82352941,3.52941176 C5.82352941,5.47104765 7.25252771,7.05882353 9,7.05882353 C10.7474723,7.05882353 12.1764706,5.47104765 12.1764706,3.52941176 C12.1764706,1.58777588 10.7474723,0 9,0 Z M9,1.17647059 C10.1767002,1.17647059 11.1176471,2.22196706 11.1176471,3.52941176 C11.1176471,4.83685647 10.1767002,5.88235294 9,5.88235294 C7.82329976,5.88235294 6.88235294,4.83685647 6.88235294,3.52941176 C6.88235294,2.22196706 7.82329976,1.17647059 9,1.17647059 Z M9,8.23529412 C7.012638,8.23529412 4.42555147,8.85110294 4.42555147,8.85110294 C4.33869512,8.87178294 4.25804241,8.91544118 4.19186594,8.97977941 L4.181526,8.98897059 C3.62316176,9.17739 3.18267476,9.59099294 2.92624094,10.1631435 L2.92417306,10.1631435 L2.91176471,10.1746324 C2.84765612,10.2343753 2.79595588,10.3125 2.76286765,10.3998165 L0.748621588,15.7996324 C0.721737,15.8731618 0.709329176,15.9535847 0.709329176,16.0317094 C0.624540706,16.2637871 0.529411765,16.4935665 0.529411765,16.7647059 C0.529411765,17.8952206 1.36488971,18.8235294 2.38235294,18.8235294 C2.549862,18.8235294 2.70082747,18.7936582 2.82904412,18.7591912 L4.00367647,18.4375 C3.95818041,18.4949447 3.93336424,18.5363053 3.87752771,18.6006435 C3.59834559,18.9131435 3.20128676,19.2853859 2.80216006,19.6346506 C2.00390612,20.33318 1.19944853,20.9397976 1.19944853,20.9397976 C1.12706788,20.9926471 1.06916347,21.0638788 1.02987159,21.1488971 C0.432214941,21.6268382 0,22.3552388 0,23.2352941 C0,24.6897976 1.07329976,25.8823529 2.38235294,25.8823529 L15.6176471,25.8823529 C16.9267002,25.8823529 18,24.6897976 18,23.2352941 C18,22.3483459 17.559513,21.6153494 16.9556527,21.1374082 C16.9163603,21.0569853 16.8625922,20.9880518 16.7943473,20.9352024 C16.7943473,20.9352024 15.9919576,20.3056065 15.1957721,19.5886947 C14.7966454,19.2325371 14.4016544,18.8511029 14.1204044,18.5363053 C14.0935204,18.5041359 14.0831804,18.4857535 14.0583642,18.4558824 L15.1709559,18.7591912 C15.2991731,18.7936582 15.450138,18.8235294 15.6176471,18.8235294 C16.6351103,18.8235294 17.4705882,17.8952206 17.4705882,16.7647059 C17.4705882,16.4912682 17.3733914,16.2614888 17.2886029,16.0294118 C17.2886029,15.9512871 17.2761951,15.8731618 17.2493105,15.7996324 L15.2350645,10.3998165 C15.2019762,10.3125 15.1523439,10.2343753 15.0882353,10.1746324 L15.0737591,10.1631435 C14.8152574,9.59099294 14.3768382,9.17739 13.8164061,8.98897059 L13.8060662,8.97977941 C13.7398897,8.91544118 13.659237,8.87178294 13.5744485,8.85110294 C13.5744485,8.85110294 10.9852941,8.23529412 9,8.23529412 Z M9,9.41176471 C10.7495407,9.41176471 13.2146142,9.97242647 13.3014706,9.99310647 C13.3324909,10.0045959 13.3635113,10.0137871 13.3945311,10.0183824 C13.7895221,10.0873165 14.1079966,10.3906253 14.2320775,10.7996324 C14.2610294,10.8938418 14.3085939,10.9788606 14.3747704,11.0454965 L14.306526,10.9834559 L16.1656708,15.9696694 L16.3083642,15.7169118 C16.2049632,15.9030329 16.2008275,16.1374082 16.3000922,16.3258271 C16.3724723,16.4636947 16.4117647,16.6084559 16.4117647,16.7647059 C16.4117647,17.2587318 16.0622704,17.6470588 15.6176471,17.6470588 C15.5638789,17.6470588 15.5018382,17.6378676 15.4253218,17.6171876 C15.4232539,17.61489 15.4232539,17.61489 15.4232539,17.6171876 L13.377987,17.0588235 C13.3717834,17.0565259 13.3676471,17.0565259 13.3614429,17.0542282 L9.12614876,15.9007353 C9.10960465,15.8938418 9.09099265,15.8915441 9.07444853,15.8892465 C9.05790441,15.8846506 9.03929241,15.8823529 9.02274829,15.8823529 C9.00413629,15.8823529 8.98552376,15.8823529 8.96897965,15.8823529 C8.93589141,15.8846506 8.90487159,15.8915441 8.87385124,15.9007353 L4.63855712,17.0542282 L2.57674659,17.6171876 C2.57674659,17.61489 2.57674659,17.61489 2.57467818,17.6171876 C2.50022965,17.6378676 2.43612159,17.6470588 2.38235294,17.6470588 C1.93772965,17.6470588 1.58823529,17.2587318 1.58823529,16.7647059 C1.58823529,16.6084559 1.62752771,16.4636947 1.69990835,16.3235294 C1.79710465,16.1351106 1.79503676,15.9030329 1.68956788,15.7169118 L1.83226129,15.9696694 L3.69140612,10.9834559 L3.60661765,11.0638788 C3.68106618,10.9926471 3.73483482,10.9030329 3.76585465,10.80193 C3.89200394,10.3906253 4.21047794,10.0873165 4.60546888,10.0183824 C4.63855712,10.0137871 4.67164535,10.0045959 4.70473359,9.99080882 C4.70473359,9.99080882 4.70680147,9.99080882 4.70680147,9.99080882 C4.81020247,9.96783118 7.25459559,9.41176471 9,9.41176471 Z M9,10 C8.71254582,10 8.52642476,10.17693 8.40854806,10.3216912 C8.29067082,10.4664524 8.21208653,10.6181065 8.137638,10.7835476 C7.98874094,11.1167282 7.86879582,11.5050553 7.76539535,11.8910847 C7.60408994,12.4885112 7.54411765,12.8400735 7.49862159,13.0721506 L4.59719682,14.1475182 C4.32008259,14.2509194 4.16911765,14.5840994 4.26217818,14.8920035 C4.35523924,15.1999082 4.65510124,15.3676471 4.93221494,15.2642465 L8.10868553,14.0877759 C8.28860294,14.02114 8.42302376,13.8511029 8.46024829,13.6443018 C8.46024829,13.6443018 8.59053335,12.9296876 8.77872229,12.2265624 C8.84696718,11.9738053 8.92555147,11.7670035 9,11.5647976 C9.07444853,11.7670035 9.15096494,11.9738053 9.22127771,12.2265624 C9.40946718,12.9296876 9.53975171,13.6465994 9.53975171,13.6465994 C9.57697624,13.8534006 9.71139706,14.02114 9.89131447,14.0877759 L13.0677851,15.2642465 C13.3448988,15.3676471 13.6447613,15.1999082 13.7378218,14.8920035 C13.8308824,14.5840994 13.6799174,14.2509194 13.4028032,14.1475182 L10.5013789,13.0721506 C10.4558824,12.8400735 10.3959101,12.4885112 10.2346046,11.8910847 C10.1312042,11.5050553 10.0112591,11.1167282 9.86029412,10.7835476 C9.78584559,10.6181065 9.70726129,10.4664524 9.58938406,10.3216912 C9.47357524,10.1746324 9.28538629,10 9,10 Z M9,17.0772059 L12.7058824,18.0882353 L12.7058824,18.1158088 C12.7058824,18.4466912 12.8237591,18.6236212 12.9395679,18.8097429 C13.0574451,18.9958641 13.2022059,19.1727941 13.3676471,19.3589153 C13.6964615,19.7334559 14.1142002,20.1309741 14.5298716,20.5055147 C15.3157172,21.2109376 16.012638,21.7555147 16.0953586,21.8198529 C16.134651,21.8704047 16.1822149,21.9140624 16.2380515,21.9462318 C16.6578586,22.1966912 16.9411765,22.6723347 16.9411765,23.2352941 C16.9411765,24.0533088 16.3538603,24.7058824 15.6176471,24.7058824 L6.61764706,24.7058824 C6.17302376,24.7058824 5.82352941,24.3175553 5.82352941,23.8235294 C5.82352941,23.3869488 6.10064365,23.0353859 6.46461424,22.9572612 C6.46668212,22.9572612 6.46875,22.9572612 6.47081788,22.9572612 L11.7545956,21.7532171 C12.0275735,21.69807 12.2178309,21.4131435 12.1847426,21.1052388 C12.1516544,20.7973347 11.9076289,20.5698529 11.6305147,20.5882353 C11.5994944,20.5882353 11.5705424,20.5928312 11.5395221,20.5997241 L6.26401641,21.8014706 C5.40785859,21.9852941 4.76470588,22.8262871 4.76470588,23.8235294 C4.76470588,24.1406253 4.83708653,24.4370406 4.95289535,24.7058824 L2.38235294,24.7058824 C1.64613971,24.7058824 1.05882353,24.0533088 1.05882353,23.2352941 C1.05882353,22.67693 1.33800565,22.2058824 1.75160859,21.9531253 C1.80124094,21.9232535 1.84466912,21.8864888 1.88396153,21.8405329 C1.96668212,21.7784929 2.66773924,21.2522976 3.45772059,20.5606618 C3.87545982,20.1930147 4.29526641,19.80239 4.63028506,19.4278494 C4.79572624,19.2417282 4.94255541,19.0602024 5.06043212,18.8694853 C5.17830882,18.6787682 5.29411765,18.4880518 5.29411765,18.1640624 L5.29411765,18.0882353 L9,17.0772059 Z" id="Shape"></path>
        </g>
    </g>
</svg>