<?xml version="1.0" encoding="UTF-8"?>
<svg width="58px" height="58px" viewBox="0 0 58 58" version="1.1" xmlns="http://www.w3.org/2000/svg" xmlns:xlink="http://www.w3.org/1999/xlink">
    <!-- Generator: Sketch 44.1 (41455) - http://www.bohemiancoding.com/sketch -->
    <title>icon-pause</title>
    <desc>Created with Sketch.</desc>
    <defs></defs>
    <g id="Page-1" stroke="none" stroke-width="1" fill="none" fill-rule="evenodd">
        <g id="icon-pause" fill-rule="nonzero" fill="#000000">
            <path d="M29,0 C13.007813,0 0,13.011719 0,29 C0,44.988281 13.007813,58 29,58 C44.992188,58 58,44.988281 58,29 C58,13.011719 44.992188,0 29,0 Z M29,2 C43.886719,2 56,14.113281 56,29 C56,43.886719 43.886719,56 29,56 C14.113281,56 2,43.886719 2,29 C2,14.113281 14.113281,2 29,2 Z M28.5625,6.007813 C22.671875,6.128906 16.964844,8.511719 12.738281,12.734375 C3.769531,21.703125 3.769531,36.296875 12.738281,45.265625 C12.933594,45.457031 13.1875,45.558594 13.445313,45.558594 C13.703125,45.558594 13.957031,45.457031 14.152344,45.265625 C14.542969,44.871094 14.542969,44.242188 14.152344,43.847656 C5.964844,35.660156 5.960938,22.339844 14.152344,14.152344 C18.898438,9.402344 25.699219,7.203125 32.339844,8.265625 C32.882813,8.355469 33.398438,7.984375 33.484375,7.4375 C33.570313,6.890625 33.199219,6.378906 32.65625,6.289063 C31.289063,6.074219 29.921875,5.980469 28.5625,6.007813 Z M36.660156,7.386719 C36.269531,7.402344 35.910156,7.648438 35.765625,8.035156 C35.570313,8.554688 35.832031,9.128906 36.351563,9.324219 C37.0625,9.585938 37.765625,9.894531 38.449219,10.238281 C38.59375,10.3125 38.75,10.347656 38.902344,10.347656 C39.265625,10.347656 39.617188,10.148438 39.796875,9.796875 C40.042969,9.308594 39.84375,8.703125 39.351563,8.453125 C38.601563,8.078125 37.828125,7.738281 37.050781,7.445313 C36.921875,7.398438 36.789063,7.382813 36.660156,7.386719 Z M42.433594,10.675781 C42.179688,10.707031 41.9375,10.835938 41.765625,11.050781 C41.425781,11.488281 41.5,12.113281 41.9375,12.453125 C42.601563,12.976563 43.246094,13.546875 43.847656,14.152344 C52.039063,22.339844 52.039063,35.660156 43.847656,43.847656 C43.457031,44.242188 43.457031,44.871094 43.847656,45.265625 C44.042969,45.457031 44.300781,45.558594 44.558594,45.558594 C44.8125,45.558594 45.070313,45.457031 45.265625,45.265625 C54.230469,36.296875 54.230469,21.703125 45.265625,12.734375 C44.605469,12.078125 43.898438,11.449219 43.171875,10.878906 C42.953125,10.710938 42.6875,10.644531 42.433594,10.675781 Z M22,18 C20.898438,18 20,18.898438 20,20 L20,38 C20,39.101563 20.898438,40 22,40 L26,40 C27.101563,40 28,39.101563 28,38 L28,20 C28,18.898438 27.101563,18 26,18 L22,18 Z M32,18 C30.898438,18 30,18.898438 30,20 L30,38 C30,39.101563 30.898438,40 32,40 L36,40 C37.101563,40 38,39.101563 38,38 L38,20 C38,18.898438 37.101563,18 36,18 L32,18 Z M22,20 L26,20 L26,38 L22,38 L22,20 Z M32,20 L36,20 L36,38 L32,38 L32,20 Z M19.375,45.394531 C18.984375,45.347656 18.589844,45.527344 18.386719,45.886719 L17.386719,47.617188 C17.109375,48.097656 17.269531,48.707031 17.75,48.984375 C17.90625,49.074219 18.078125,49.117188 18.25,49.117188 C18.59375,49.117188 18.929688,48.9375 19.113281,48.617188 L20.113281,46.886719 C20.390625,46.410156 20.230469,45.796875 19.75,45.519531 C19.628906,45.453125 19.5,45.410156 19.375,45.394531 Z M38.625,45.394531 C38.496094,45.410156 38.371094,45.453125 38.25,45.519531 C37.769531,45.796875 37.609375,46.410156 37.886719,46.890625 L38.886719,48.621094 C39.070313,48.941406 39.40625,49.121094 39.75,49.121094 C39.921875,49.121094 40.09375,49.074219 40.25,48.984375 C40.730469,48.707031 40.890625,48.097656 40.613281,47.621094 L39.613281,45.890625 C39.410156,45.53125 39.011719,45.347656 38.625,45.394531 Z M34.1875,47.34375 C34.058594,47.324219 33.921875,47.332031 33.785156,47.371094 C33.253906,47.511719 32.9375,48.0625 33.078125,48.59375 L33.597656,50.527344 C33.71875,50.972656 34.121094,51.265625 34.5625,51.265625 C34.648438,51.265625 34.734375,51.257813 34.824219,51.234375 C35.355469,51.089844 35.671875,50.542969 35.53125,50.011719 L35.015625,48.078125 C34.90625,47.675781 34.570313,47.398438 34.1875,47.34375 Z M23.8125,47.34375 C23.429688,47.398438 23.09375,47.675781 22.984375,48.078125 L22.46875,50.011719 C22.324219,50.542969 22.640625,51.089844 23.175781,51.234375 C23.261719,51.257813 23.351563,51.265625 23.4375,51.265625 C23.875,51.265625 24.28125,50.972656 24.402344,50.527344 L24.917969,48.59375 C25.0625,48.0625 24.746094,47.511719 24.214844,47.371094 C24.078125,47.332031 23.941406,47.328125 23.8125,47.34375 Z M29,48 C28.449219,48 28,48.445313 28,49 L28,51 C28,51.554688 28.449219,52 29,52 C29.550781,52 30,51.554688 30,51 L30,49 C30,48.445313 29.550781,48 29,48 Z" id="Shape"></path>
        </g>
    </g>
</svg>
