<?xml version="1.0" encoding="UTF-8"?>
<svg width="24px" height="21px" viewBox="0 0 24 21" version="1.1" xmlns="http://www.w3.org/2000/svg" xmlns:xlink="http://www.w3.org/1999/xlink">
    <!-- Generator: Sketch 44.1 (41455) - http://www.bohemiancoding.com/sketch -->
    <title>icon-music</title>
    <desc>Created with Sketch.</desc>
    <defs></defs>
    <g id="Page-1" stroke="none" stroke-width="1" fill="none" fill-rule="evenodd">
        <g id="icon-music" fill-rule="nonzero" fill="#4C4C4C">
            <path d="M0.39,0 C0.16125024,0.04312512 -0.00375,0.24562512 6.39489546e-16,0.48 L6.39489546e-16,19.68 C6.39489546e-16,19.9443749 0.21562512,20.16 0.48,20.16 L23.52,20.16 C23.7843749,20.16 24,19.9443749 24,19.68 L24,0.48 C24,0.21562512 23.7843749,0 23.52,0 L0.48,0 C0.465,0 0.45,0 0.435,0 C0.42,0 0.405,0 0.39,0 Z M0.96,0.96 L23.04,0.96 L23.04,10.08 L0.96,10.08 L0.96,0.96 Z M2.88,2.88 C2.62875024,2.88 2.37187488,2.96812512 2.19,3.15 C2.00812512,3.33187488 1.92,3.58875024 1.92,3.84 L1.92,7.68 C1.92,7.93125024 2.00812512,8.18812512 2.19,8.37 C2.37187488,8.55187488 2.62875024,8.64 2.88,8.64 L11.52,8.64 C11.7712502,8.64 12.0281251,8.55187488 12.21,8.37 C12.3918749,8.18812512 12.48,7.93125024 12.48,7.68 L12.48,3.84 C12.48,3.58875024 12.3918749,3.33187488 12.21,3.15 C12.0281251,2.96812512 11.7712502,2.88 11.52,2.88 L2.88,2.88 Z M2.88,3.84 L11.52,3.84 L11.52,7.68 L2.88,7.68 L2.88,3.84 Z M15.36,3.84 C14.3043749,3.84 13.44,4.70437488 13.44,5.76 C13.44,6.81562512 14.3043749,7.68 15.36,7.68 C16.4156251,7.68 17.28,6.81562512 17.28,5.76 C17.28,4.70437488 16.4156251,3.84 15.36,3.84 Z M20.16,3.84 C19.1043749,3.84 18.24,4.70437488 18.24,5.76 C18.24,6.81562512 19.1043749,7.68 20.16,7.68 C21.2156251,7.68 22.08,6.81562512 22.08,5.76 C22.08,4.70437488 21.2156251,3.84 20.16,3.84 Z M3.84,4.32 L3.84,7.2 L4.8,7.2 L4.8,4.32 L3.84,4.32 Z M9.6,4.32 L9.6,7.2 L10.56,7.2 L10.56,4.32 L9.6,4.32 Z M6.72,4.8 L6.72,7.2 L7.68,7.2 L7.68,4.8 L6.72,4.8 Z M15.36,4.8 C15.8962502,4.8 16.32,5.22375024 16.32,5.76 C16.32,6.29625024 15.8962502,6.72 15.36,6.72 C14.8237502,6.72 14.4,6.29625024 14.4,5.76 C14.4,5.22375024 14.8237502,4.8 15.36,4.8 Z M20.16,4.8 C20.6962502,4.8 21.12,5.22375024 21.12,5.76 C21.12,6.29625024 20.6962502,6.72 20.16,6.72 C19.6237502,6.72 19.2,6.29625024 19.2,5.76 C19.2,5.22375024 19.6237502,4.8 20.16,4.8 Z M8.16,5.28 L8.16,7.2 L9.12,7.2 L9.12,5.28 L8.16,5.28 Z M5.28,6.24 L5.28,7.2 L6.24,7.2 L6.24,6.24 L5.28,6.24 Z M0.96,11.04 L4.335,11.04 L4.47,16.95 C4.51875024,17.1412502 4.65375024,17.28 4.845,17.28 L5.715,17.28 C5.90625024,17.28 6.045,17.1412502 6.045,16.95 L6.225,11.04 L7.215,11.04 L7.35,16.95 C7.39875024,17.1412502 7.53375024,17.28 7.725,17.28 L8.595,17.28 C8.78625024,17.28 8.925,17.1412502 8.925,16.95 L9.105,11.04 L10.095,11.04 L10.23,16.95 C10.2787502,17.1412502 10.4137502,17.28 10.605,17.28 L11.475,17.28 C11.6662502,17.28 11.805,17.1412502 11.805,16.95 L11.985,11.04 L14.895,11.04 L15.03,16.95 C15.0787502,17.1412502 15.2137502,17.28 15.405,17.28 L16.275,17.28 C16.4662502,17.28 16.605,17.1412502 16.605,16.95 L16.785,11.04 L17.775,11.04 L17.91,16.95 C17.9587502,17.1412502 18.0937502,17.28 18.285,17.28 L19.155,17.28 C19.3462502,17.28 19.485,17.1412502 19.485,16.95 L19.665,11.04 L23.04,11.04 L23.04,19.2 L0.96,19.2 L0.96,11.04 Z" id="Shape"></path>
        </g>
    </g>
</svg>