<?xml version="1.0" encoding="UTF-8"?>
<svg width="26px" height="20px" viewBox="0 0 26 20" version="1.1" xmlns="http://www.w3.org/2000/svg" xmlns:xlink="http://www.w3.org/1999/xlink">
    <!-- Generator: Sketch 44.1 (41455) - http://www.bohemiancoding.com/sketch -->
    <title>icon-waves</title>
    <desc>Created with Sketch.</desc>
    <defs></defs>
    <g id="Page-1" stroke="none" stroke-width="1" fill="none" fill-rule="evenodd">
        <g id="icon-waves" fill-rule="nonzero" fill="#4C4C4C">
            <path d="M6.57965686,0.493872549 C6.5577511,0.497855647 6.53584584,0.503829529 6.51593137,0.509803922 C6.27895208,0.563572431 6.11167267,0.776654667 6.11764706,1.01960784 L6.11764706,19.372549 C6.11565576,19.5557598 6.211244,19.7270223 6.37055773,19.8206187 C6.52987145,19.9122244 6.72503051,19.9122244 6.88434424,19.8206187 C7.04365796,19.7270223 7.1392462,19.5557598 7.1372549,19.372549 L7.1372549,1.01960784 C7.14322929,0.872242902 7.08348639,0.730851843 6.97794118,0.63128051 C6.87040467,0.529718392 6.72503051,0.479932471 6.57965686,0.493872549 Z M18.814951,0.493872549 C18.7930452,0.497855647 18.77114,0.503829529 18.7512255,0.509803922 C18.5142462,0.563572431 18.3469668,0.776654667 18.3529412,1.01960784 L18.3529412,19.372549 C18.3509499,19.5557598 18.4465381,19.7270223 18.6058518,19.8206187 C18.7651656,19.9122244 18.9603246,19.9122244 19.1196384,19.8206187 C19.2789521,19.7270223 19.3745403,19.5557598 19.372549,19.372549 L19.372549,1.01960784 C19.3785234,0.872242902 19.3187805,0.730851843 19.2132353,0.63128051 C19.1056988,0.529718392 18.9603246,0.479932471 18.814951,0.493872549 Z M3.52083333,5.08210784 C3.49892757,5.08609094 3.47702231,5.09206482 3.45710784,5.09803922 C3.22012855,5.15180773 3.05284914,5.36488996 3.05882353,5.60784314 L3.05882353,14.7843137 C3.05683224,14.9675245 3.15242047,15.138787 3.3117342,15.2323835 C3.47104792,15.3239891 3.66620698,15.3239891 3.82552071,15.2323835 C3.98483443,15.138787 4.08042267,14.9675245 4.07843137,14.7843137 L4.07843137,5.60784314 C4.08440576,5.4604782 4.02466286,5.31908714 3.91911765,5.2195158 C3.81158114,5.11795369 3.66620698,5.06816776 3.52083333,5.08210784 Z M21.8737745,5.08210784 C21.8518687,5.08609094 21.8299635,5.09206482 21.810049,5.09803922 C21.5730697,5.15180773 21.4057903,5.36488996 21.4117647,5.60784314 L21.4117647,14.7843137 C21.4097734,14.9675245 21.5053616,15.138787 21.6646754,15.2323835 C21.8239891,15.3239891 22.0191482,15.3239891 22.1784619,15.2323835 C22.3377756,15.138787 22.4333638,14.9675245 22.4313725,14.7843137 L22.4313725,5.60784314 C22.4373469,5.4604782 22.377604,5.31908714 22.2720588,5.2195158 C22.1645223,5.11795369 22.0191482,5.06816776 21.8737745,5.08210784 Z M9.63848039,5.59191176 C9.61657463,5.59589486 9.59466937,5.60186875 9.5747549,5.60784314 C9.33777561,5.66161165 9.1704962,5.87469388 9.17647059,6.11764706 L9.17647059,14.2745098 C9.17447929,14.4577206 9.27006753,14.6289831 9.42938125,14.7225795 C9.58869498,14.8141852 9.78385404,14.8141852 9.94316776,14.7225795 C10.1024815,14.6289831 10.1980697,14.4577206 10.1960784,14.2745098 L10.1960784,6.11764706 C10.2020528,5.97028212 10.1423099,5.82889106 10.0367647,5.72931973 C9.9292282,5.62775761 9.78385404,5.57797169 9.63848039,5.59191176 Z M15.7561275,5.59191176 C15.7342217,5.59589486 15.7123164,5.60186875 15.692402,5.60784314 C15.4554227,5.66161165 15.2881433,5.87469388 15.2941176,6.11764706 L15.2941176,14.2745098 C15.2921264,14.4577206 15.3877146,14.6289831 15.5470283,14.7225795 C15.706342,14.8141852 15.9015011,14.8141852 16.0608148,14.7225795 C16.2201285,14.6289831 16.3157168,14.4577206 16.3137255,14.2745098 L16.3137255,6.11764706 C16.3196999,5.97028212 16.259957,5.82889106 16.1544118,5.72931973 C16.0468753,5.62775761 15.9015011,5.57797169 15.7561275,5.59191176 Z M0.462009804,8.14093137 C0.440104039,8.14491447 0.418198784,8.15088835 0.398284314,8.15686275 C0.16130502,8.21063125 -0.0059742902,8.42371349 5.09385286e-16,8.66666667 L5.09385286e-16,11.7254902 C-0.00199142157,11.908701 0.0935969412,12.0799635 0.252910667,12.1735599 C0.412224392,12.2651656 0.607383451,12.2651656 0.766697176,12.1735599 C0.926010902,12.0799635 1.02159914,11.908701 1.01960784,11.7254902 L1.01960784,8.66666667 C1.02558224,8.51930173 0.965839333,8.37791067 0.860294118,8.27833933 C0.752757608,8.17677722 0.607383451,8.12699129 0.462009804,8.14093137 Z M12.6973039,8.14093137 C12.6753982,8.14491447 12.6534929,8.15088835 12.6335784,8.15686275 C12.3965991,8.21063125 12.2293197,8.42371349 12.2352941,8.66666667 L12.2352941,11.7254902 C12.2333028,11.908701 12.3288911,12.0799635 12.4882048,12.1735599 C12.6475185,12.2651656 12.8426776,12.2651656 13.0019913,12.1735599 C13.161305,12.0799635 13.2568933,11.908701 13.254902,11.7254902 L13.254902,8.66666667 C13.2608764,8.51930173 13.2011335,8.37791067 13.0955882,8.27833933 C12.9880517,8.17677722 12.8426776,8.12699129 12.6973039,8.14093137 Z M24.932598,8.14093137 C24.9106923,8.14491447 24.888787,8.15088835 24.8688725,8.15686275 C24.6318933,8.21063125 24.4646138,8.42371349 24.4705882,8.66666667 L24.4705882,11.7254902 C24.4685969,11.908701 24.5641852,12.0799635 24.7234989,12.1735599 C24.8828126,12.2651656 25.0779717,12.2651656 25.2372854,12.1735599 C25.3965991,12.0799635 25.4921874,11.908701 25.4901961,11.7254902 L25.4901961,8.66666667 C25.4961705,8.51930173 25.4364276,8.37791067 25.3308824,8.27833933 C25.2233458,8.17677722 25.0779717,8.12699129 24.932598,8.14093137 Z" id="Shape"></path>
        </g>
    </g>
</svg>